<svg width="20" height="20" viewBox="0 0 20 20" fill="none" xmlns="http://www.w3.org/2000/svg">
<path d="M10.5714 10.5714V13.4286C10.5714 13.7442 10.3156 14 10 14C9.68441 14 9.42857 13.7442 9.42857 13.4286V10.5714H6.57143C6.25584 10.5714 6 10.3156 6 10C6 9.68441 6.25584 9.42857 6.57143 9.42857H9.42857V6.57143C9.42857 6.25584 9.68441 6 10 6C10.3156 6 10.5714 6.25584 10.5714 6.57143V9.42857H13.4286C13.7442 9.42857 14 9.68441 14 10C14 10.3156 13.7442 10.5714 13.4286 10.5714H10.5714Z" fill="white"/>
<rect x="0.5" y="0.5" width="19" height="19" rx="9.5" stroke="white"/>
</svg>
