<svg width="12" height="12" viewBox="0 0 12 12" fill="none" xmlns="http://www.w3.org/2000/svg">
<path d="M11.154 0.846C10.6868 0.378767 9.92923 0.378767 9.462 0.846L6 4.308L2.538 0.845999C2.07077 0.378767 1.31323 0.378767 0.846 0.846V0.846C0.378767 1.31323 0.378767 2.07077 0.846 2.538L4.308 6L0.845999 9.462C0.378767 9.92923 0.378767 10.6868 0.846 11.154V11.154C1.31323 11.6212 2.07077 11.6212 2.538 11.154L6 7.692L9.462 11.154C9.92923 11.6212 10.6868 11.6212 11.154 11.154V11.154C11.6212 10.6868 11.6212 9.92923 11.154 9.462L7.692 6L11.154 2.538C11.6212 2.07077 11.6212 1.31323 11.154 0.846V0.846Z" fill="#262F3B"/>
</svg>
