<svg width="16" height="16" viewBox="0 0 16 16" fill="none" xmlns="http://www.w3.org/2000/svg">
<g clip-path="url(#clip0_3611_1341)">
<path d="M6.48962 13.0006C4.92761 13.0006 3.65625 11.7292 3.65625 10.1672V3.33398H2.48962C1.47827 3.33398 0.65625 4.15588 0.65625 5.16724V14.1672C0.65625 15.1786 1.47827 16.0006 2.48962 16.0006H10.8229C11.8342 16.0006 12.6562 15.1786 12.6562 14.1672V13.0006H6.48962Z" fill="#9CADC4"/>
<path d="M15.3229 1.83337C15.3229 0.820679 14.5022 0 13.4896 0H6.48962C5.47693 0 4.65625 0.820679 4.65625 1.83337V10.1666C4.65625 11.1793 5.47693 12 6.48962 12H13.4896C14.5022 12 15.3229 11.1793 15.3229 10.1666V1.83337Z" fill="#9CADC4"/>
</g>
<defs>
<clipPath id="clip0_3611_1341">
<rect width="16" height="16" fill="white"/>
</clipPath>
</defs>
</svg>
